<svg xmlns="http://www.w3.org/2000/svg" width="900" height="500" viewBox="0 0 900 500" fill="none">
  <rect width="900" height="500" fill="transparent"/>
  <g stroke="#0047B8" stroke-opacity="0.12" stroke-width="2">
    <path d="M70 80h120v70h90"/><circle cx="70" cy="80" r="8"/><circle cx="280" cy="150" r="8"/>
    <path d="M520 40v80h130v90h110"/><circle cx="520" cy="40" r="7"/><circle cx="760" cy="210" r="7"/>
    <path d="M120 360h170v-85h120"/><circle cx="120" cy="360" r="7"/><circle cx="410" cy="275" r="7"/>
    <path d="M575 420v-100h80v-65h165"/><circle cx="575" cy="420" r="7"/><circle cx="820" cy="255" r="7"/>
    <path d="M45 235h82v-65"/><circle cx="45" cy="235" r="7"/>
    <path d="M350 85h58v62h73"/><circle cx="481" cy="147" r="7"/>
  </g>
</svg>
